:SAMPLES-PER-SECOND 30
:FULLY-SPECIFIED
:DEGREES
49
root  72.4808 37.3279 -7.91491 67.5058 -87.4828 -64.2357
RightUpLeg  -6.49847 -10.928 1.06236
RightLeg  33.2256 -3.9187 -3.02125
RightFoot  -27.8135 0.132143 2.21758
RightToes  -1.74624e-010 0 -3.6325e-017
Spine  11.0478 -1.49528 9.10627
Spine1  7.32691 -0.633339 0.109814
HEad  -27.0046 2.97886 -7.24095
LeftShoulder1  8.54119 -12.0152 -48.0372
LeftArm  -4.28605 21.5535 -19.625
LeftForeArm  137.707 -79.8932 -116.211
LeftHand  -0.244104 0.0205437 5.32207
RightShoulder  6.45099 9.71196 42.5091
RightArm  -2.17789 -13.1198 33.0046
RightForeArm  123.231 73.0238 140.927
RightHand  0.341529 -10.3744 -8.86994
LeftUpLeg  -26.3583 6.27382 7.28545
LeftLeg  58.4444 8.8028 15.5918
LeftFoot  -17.5133 -0.161588 -4.93451
LeftToes  1.61887e-010 9.40759e-012 5.52375e-011
50
root  71.3382 37.6649 -7.98219 37.0949 -88.3705 -32.7554
RightUpLeg  -3.76141 -12.1717 -0.784274
RightLeg  29.1718 -2.84858 -1.97925
RightFoot  -26.6739 0.1353 2.33422
RightToes  -1.74624e-010 0 -3.6325e-017
Spine  9.86905 -0.24854 9.87132
Spine1  6.85576 1.41837 -3.13838
HEad  -25.8703 1.39664 -5.26248
LeftShoulder1  8.57873 -12.1191 -47.9263
LeftArm  -1.95957 27.0911 -19.0537
LeftForeArm  166.555 -74.1619 -145.881
LeftHand  -0.244104 0.0205437 5.32207
RightShoulder  6.22665 9.60518 41.2811
RightArm  1.07927 -11.9592 33.2526
RightForeArm  137.289 68.0954 151.805
RightHand  0.29668 -11.174 -6.85286
LeftUpLeg  -28.9622 6.4668 3.97684
LeftLeg  57.7378 6.96266 12.2754
LeftFoot  -17.4859 -0.198196 -5.65137
LeftToes  1.61887e-010 9.40759e-012 5.52375e-011
51
root  70.0153 38.3165 -8.01202 -34.7793 -88.4093 40.7252
RightUpLeg  -0.743303 -13.3451 -3.54138
RightLeg  23.394 -1.2829 -0.798808
RightFoot  -22.9097 0.138797 2.92809
RightToes  -1.74624e-010 0 -3.6325e-017
Spine  8.49368 1.31454 9.8074
Spine1  5.41226 3.67522 -6.89071
HEad  -24.0037 -0.244747 -3.06199
LeftShoulder1  8.4493 -11.9738 -47.6412
LeftArm  0.648701 32.8651 -18.0819
LeftForeArm  173.667 -68.8096 -155.492
LeftHand  -0.244104 0.0205437 5.32207
RightShoulder  6.00011 9.39698 40.353
RightArm  4.21446 -12.964 33.43
RightForeArm  146.433 64.5158 156.926
RightHand  0.166187 -11.0841 -4.44169
LeftUpLeg  -30.4325 7.80958 -0.377074
LeftLeg  53.1942 6.56206 9.78542
LeftFoot  -16.8197 -0.209439 -6.47635
LeftToes  1.61887e-010 9.40759e-012 5.52375e-011
52
root  68.5993 39.0998 -7.985 -72.8886 -86.9798 80.2918
RightUpLeg  2.28946 -13.7449 -6.55508
RightLeg  17.6027 0.450382 0.54694
RightFoot  -16.5963 0.110267 5.17392
RightToes  -1.74624e-010 0 -3.6325e-017
Spine  6.87689 2.85725 9.74065
Spine1  4.57977 5.91926 -10.915
HEad  -21.4253 -1.98203 -1.13055
LeftShoulder1  8.31694 -11.8436 -47.287
LeftArm  2.02417 38.3866 -17.2679
LeftForeArm  174.486 -65.1607 -159.326
LeftHand  -0.244104 0.0205437 5.32207
RightShoulder  5.98082 9.46668 39.9754
RightArm  7.24708 -14.3589 33.1514
RightForeArm  151.775 62.9331 158.889
RightHand  0.0219348 -11.6175 -1.58695
LeftUpLeg  -30.3036 10.4131 -4.77842
LeftLeg  45.9377 7.03822 8.14204
LeftFoot  -16.2063 -0.186519 -6.6638
LeftToes  1.61887e-010 9.40759e-012 5.52375e-011
53
root  67.1407 39.7974 -7.8948 -82.7162 -85.9632 90.819
RightUpLeg  5.2183 -13.4394 -9.12014
RightLeg  13.4327 1.44763 1.77597
RightFoot  -9.27929 -0.220043 8.63573
RightToes  -1.74624e-010 0 -3.6325e-017
Spine  5.10851 4.02777 9.88224
Spine1  5.16874 7.71329 -13.9243
HEad  -19.1232 -3.15439 0.0462038
LeftShoulder1  8.38556 -12.0442 -47.0584
LeftArm  0.63283 43.5716 -18.0211
LeftForeArm  173.795 -62.7349 -161.248
LeftHand  -0.244104 0.0205437 5.32207
RightShoulder  6.10593 9.85768 39.5834
RightArm  10.3983 -14.9669 32.7389
RightForeArm  153.824 63.1499 158.893
RightHand  -0.144621 -12.8558 1.11954
LeftUpLeg  -28.6727 12.6517 -8.11974
LeftLeg  37.9095 7.07633 6.2607
LeftFoot  -16.1856 -0.174703 -6.41585
LeftToes  1.61887e-010 9.40759e-012 5.52375e-011
